<?xml version="1.0" encoding="utf-8"?>
<svg id="master-artboard" viewBox="0 0 1400 980" version="1.1" xmlns="http://www.w3.org/2000/svg" x="0px" y="0px" style="enable-background:new 0 0 1400 980;" width="1400px" height="980px"><g transform="matrix(3.425003290176392, 0, 0, 3.425003290176392, -1659.5295438723142, -812.3577260615716)"><g transform="matrix(1, 0, 0, 1, 7.317073345184326, -418.5365905761719)"><g transform="matrix(1, 0, 0, 1, 0, 0)">
			<path class="st16" d="M594.7,915.3c0,0,0-9,0-33.7c0-30.7-29.6-50.7-29.6-107.2c0-42.6,30.6-76.8,77.4-76.8&#10;&#9;&#9;&#9;&#9;c46.8,0,75.6,36,75.6,73.2c0,12.8,14.3,34.9,20.3,45.9c3.8,7-1.7,12.3-10.1,12.3s-10.8,1.8-10.8,11.4c0,9.6,0,15.6,0,22.2&#10;&#9;&#9;&#9;&#9;s-3.6,21-20.4,21c-16.8,0-23.4,0-23.4,0v51.8C620.3,935.5,594.7,915.3,594.7,915.3z" style="fill: rgb(186, 151, 101); fill-opacity: 0;"/>
			<path class="st2" d="M594.7,915.3c0,0,0-9,0-33.7c0-30.7-29.6-50.7-29.6-107.2c0-42.6,30.6-76.8,77.4-76.8&#10;&#9;&#9;&#9;&#9;c46.8,0,75.6,36,75.6,73.2c0,12.8,14.3,34.9,20.3,45.9c3.8,7-1.7,12.3-10.1,12.3s-10.8,1.8-10.8,11.4c0,9.6,0,15.6,0,22.2&#10;&#9;&#9;&#9;&#9;s-3.6,21-20.4,21c-16.8,0-23.4,0-23.4,0v51.8" style="fill: none; stroke: rgb(0, 0, 0); stroke-width: 6; stroke-linecap: round; stroke-linejoin: round; stroke-miterlimit: 10; fill-opacity: 0;"/>
			<path class="st3" d="M718.2,770.8c0-22.7-10.8-44.9-29.7-58.8c23.2,32.4,13,53,15.1,69.6c2.2,17.5,15.8,59.9-9.1,79.7&#10;&#9;&#9;&#9;&#9;c-22.1,17.5-64-18.8-85.3,2.5c48.3,22.2,38.3,54.4,29.7,68.5c9.9,1.9,21.5,3.2,34.9,3.2v-51.8c0,0,6.6,0,23.4,0&#10;&#9;&#9;&#9;&#9;c16.8,0,20.4-14.4,20.4-21s0-12.6,0-22.2c0-9.6,2.4-11.4,10.8-11.4s13.9-5.3,10.1-12.3C732.5,805.7,718.2,783.6,718.2,770.8z" style="opacity: 0.1; fill-opacity: 0;"/>
		</g></g></g><g transform="matrix(0.6637703776359558, 0, 0, 0.6637703776359558, 316.7946391135987, 372.1984854082526)"><g id="g-1" transform="matrix(1, 0, 0, 1, 0, 0)">
	<g id="g-2">
		<path class="st0" d="M652,46c27.6,0,50,22.4,50,50s-22.4,50-50,50s-50-22.4-50-50S624.4,46,652,46z" style="fill: rgb(0, 0, 0);"/>
	</g>
</g></g><g transform="matrix(1.2181000709533691, 0, 0, 1.2181000709533691, -519.5473108161618, -57.913859366503885)"><g transform="matrix(0.7218579053878784, 0, 0, 0.7218579053878784, 228.86684261330333, 37.40752682199665)"><path class="st1" d="M1040.1,282.6v-18.4h-13.6c-1.2-6-3.6-11.6-6.8-16.5l9.6-9.6l-13-13l-9.6,9.6c-4.9-3.3-10.5-5.6-16.5-6.8&#10;&#9;&#9;&#9;v-13.6h-18.4v13.6c-6,1.2-11.6,3.6-16.5,6.8l-9.6-9.6l-13,13l9.6,9.6c-3.3,4.9-5.6,10.5-6.8,16.5h-13.6v18.4h13.6&#10;&#9;&#9;&#9;c1.2,6,3.6,11.6,6.8,16.5l-9.6,9.6l13,13l9.6-9.6c4.9,3.3,10.5,5.6,16.5,6.8v13.6h18.4V319c6-1.2,11.6-3.6,16.5-6.8l9.6,9.6l13-13&#10;&#9;&#9;&#9;l-9.6-9.6c3.3-4.9,5.6-10.5,6.8-16.5H1040.1z M980.9,304c-16.9,0-30.6-13.7-30.6-30.6c0-16.9,13.7-30.6,30.6-30.6&#10;&#9;&#9;&#9;c16.9,0,30.6,13.7,30.6,30.6C1011.4,290.3,997.8,304,980.9,304z" style="fill: rgb(13, 13, 13);" transform="matrix(1, 0, 0, 1, 0, 0)"/><path class="st1" d="M1016.5,392l2.9-12.1l-8.9-2.1c0.1-4.1-0.5-8.2-1.9-12l7.8-4.8l-6.5-10.6l-7.8,4.8c-2.7-2.9-6.1-5.4-9.8-7.1&#10;&#9;&#9;&#9;l2.1-8.9l-12.1-2.9l-2.1,8.9c-4.1-0.1-8.2,0.5-12,1.9l-4.8-7.8l-10.6,6.5l4.8,7.8c-2.9,2.7-5.4,6.1-7.1,9.8l-8.9-2.1l-2.9,12.1&#10;&#9;&#9;&#9;l8.9,2.1c-0.1,4.1,0.5,8.2,1.9,12l-7.8,4.8l6.5,10.6l7.8-4.8c2.7,2.9,6.1,5.4,9.8,7.1l-2.1,8.9l12.1,2.9l2.1-8.9&#10;&#9;&#9;&#9;c4.1,0.1,8.2-0.5,12-1.9l4.8,7.8l10.6-6.5l-4.8-7.8c2.9-2.7,5.4-6.1,7.1-9.8L1016.5,392z M974.1,396.8&#10;&#9;&#9;&#9;c-11.1-2.6-18-13.8-15.3-24.9c2.6-11.1,13.8-18,24.9-15.3c11.1,2.6,18,13.8,15.3,24.9C996.4,392.5,985.3,399.4,974.1,396.8z" style="fill: rgb(13, 13, 13);" transform="matrix(1, 0, 0, 1, 0, 0)"/><path class="st1" d="M939.6,356.3v-29.2h-21.5c-1.9-9.5-5.6-18.4-10.8-26.2l15.2-15.2L901.8,265l-15.2,15.2&#10;&#9;&#9;&#9;c-7.8-5.2-16.7-8.9-26.2-10.8v-21.5h-29.2v21.5c-9.5,1.9-18.4,5.6-26.2,10.8L789.7,265l-20.7,20.7l15.2,15.2&#10;&#9;&#9;&#9;c-5.2,7.8-8.9,16.7-10.8,26.2h-21.5v29.2h21.5c1.9,9.5,5.6,18.4,10.8,26.2l-15.2,15.2l20.7,20.7l15.2-15.2&#10;&#9;&#9;&#9;c7.8,5.2,16.7,8.9,26.2,10.8v21.5h29.2v-21.5c9.5-1.9,18.4-5.6,26.2-10.8l15.2,15.2l20.7-20.7l-15.2-15.2&#10;&#9;&#9;&#9;c5.2-7.8,8.9-16.7,10.8-26.2H939.6z M845.8,396.7c-30.4,0-55-24.6-55-55c0-30.4,24.6-55,55-55c30.4,0,55,24.6,55,55&#10;&#9;&#9;&#9;C900.8,372.1,876.1,396.7,845.8,396.7z" style="fill: rgb(13, 13, 13);" transform="matrix(1, 0, 0, 1, 0, 0)"/></g></g></svg>