<?xml version="1.0" encoding="UTF-8"?>
<svg viewBox="0 0 744.09448819 1052.3622047" xmlns="http://www.w3.org/2000/svg">
 <path d="m233.19 543.92s-16.961 13.216-28.272-3.7731-13.189-35.871-22.616-56.639c-9.4222-20.768-20.733-30.211-18.844-41.536 1.8834-11.33-16.966-20.768-18.85-58.531-1.3294-26.665 1.8834-69.85 1.8834-69.85" fill="#fff" fill-rule="evenodd"/>
 <path d="m233.19 543.92s-16.961 13.216-28.272-3.7731-13.189-35.871-22.616-56.639c-9.4222-20.768-20.733-30.211-18.844-41.536 1.8834-11.33-16.966-20.768-18.85-58.531-1.3294-26.665 1.8834-69.85 1.8834-69.85" fill="none" stroke="#000" stroke-miterlimit="11.5" stroke-width="1.25"/>
 <path d="m236.96 566.58s0-13.211-5.6554-30.206-13.194-49.087-13.194-49.087 33.927-101.95 79.165-88.732c45.233 13.216 118.74 67.964 118.74 67.964s-3.772 15.103 1.8834 30.211c5.6554 15.103 22.616 33.979 22.616 33.979s-124.4 64.19-150.78 58.531c-26.388-5.665-52.777-20.768-52.777-22.66" fill="#fff" fill-rule="evenodd"/>
 <path d="m236.96 566.58s0-13.211-5.6554-30.206-13.194-49.087-13.194-49.087 33.927-101.95 79.165-88.732c45.233 13.216 118.74 67.964 118.74 67.964s-3.772 15.103 1.8834 30.211c5.6554 15.103 22.616 33.979 22.616 33.979s-124.4 64.19-150.78 58.531c-26.388-5.665-52.777-20.768-52.777-22.66z" fill="none" stroke="#000" stroke-miterlimit="11.5" stroke-width="1.25"/>
 <path d="m270.88 232.41s-62.104 9.6759-86.699 30.206c-24.6 20.535-32.044 16.995-47.122 58.531-10.182 28.05 7.5388 83.067 7.5388 83.067l41.466 43.428s-1.9836 24.113 22.616 52.861 62.199 37.758 62.199 37.758 32.176 8.8779 77.277-7.5515c45.101-16.424 64.494-21.846 79.16-60.412 15.078-39.649 30.419-56 22.221-92.964s4.0991-41.066 4.0991-41.066 8.3671-19.463-24.437-35.887c-32.798-16.429-28.272-28.319-28.272-28.319s-27.159 9.4962-12.894-9.7181-11.606-24.266-11.606-24.266l-22.616 3.7731-15.083-18.876-9.4222 9.4381h-58.427" fill="#646464" fill-rule="evenodd"/>
 <path d="m270.88 232.41s-62.104 9.6759-86.699 30.206c-24.6 20.535-32.044 16.995-47.122 58.531-10.182 28.05 7.5388 83.067 7.5388 83.067l41.466 43.428s-1.9836 24.113 22.616 52.861 62.199 37.758 62.199 37.758 32.176 8.8779 77.277-7.5515c45.101-16.424 64.494-21.846 79.16-60.412 15.078-39.649 30.419-56 22.221-92.964s4.0991-41.066 4.0991-41.066 8.3671-19.463-24.437-35.887c-32.798-16.429-28.272-28.319-28.272-28.319s-27.159 9.4962-12.894-9.7182-11.606-24.266-11.606-24.266l-22.616 3.7731-15.083-18.876-9.4222 9.4381h-58.427z" fill="none" stroke="#000" stroke-miterlimit="11.5" stroke-width="1.25"/>
 <path d="m636.09 453.82s-37.926 8.2121-62.521-11.293c-24.6-19.51-30.751-59.551-47.153-71.869s-33.822-28.753-33.822-28.753-3.0757 4.1113-19.477 6.1617c-16.397 2.0557-29.786 6.2198-38.95-4.106-16.397-18.48-12.297-9.2425-21.524-13.349-9.2217-4.106-23.571-4.106-23.571-4.106s-14.64-4.7402-1.0287-16.424c14.35-12.323 43.049 0 43.049 0s9.227-6.1617 0-15.404c-9.2217-9.2373-16.397-21.561-23.571-20.535s4.0991 0-10.25 4.1113-14.35 10.268-16.402 15.399-2.0469 5.1312-11.274 7.1869c-9.2217 2.0557-12.297-14.374-7.1748-22.586 5.1279-8.2174 8.1983-18.485 22.548-22.591s11.279-8.2121 25.629-9.2372 13.252-14.136 23.344-12.075c17.816 3.641 18.924-4.1272 25.835-1.9394 12.266 3.8841 15.046-0.44918 23.244 7.7629s31.1 14.464 38.274 33.969c7.1748 19.51 11.274 23.616 11.274 23.616s13.326 8.2121 34.851 22.586 110.7 36.965 132.22 77.005 23.576 57.495 27.676 73.924c4.0989 16.424 13.326 19.505 11.274 26.692s-6.1513 5.1365-9.2268 25.672c-3.0759 20.53 0 31.828-7.1748 47.227s-33.822 40.04-33.822 40.04-42.025-83.162-72.776-88.298c-30.746-5.1312-44.072 6.1617-40.997-13.343 3.0759-19.51 12.298-30.803 15.373-39.015 3.0759-8.2173 9.2272-14.374 9.2272-14.374" fill="#fff" fill-rule="evenodd"/>
 <path d="m636.09 453.82s-37.926 8.2121-62.521-11.293c-24.6-19.51-30.751-59.551-47.153-71.869s-33.822-28.753-33.822-28.753-3.0757 4.1113-19.477 6.1617c-16.397 2.0557-29.786 6.2198-38.95-4.106-16.397-18.48-12.297-9.2425-21.524-13.349-9.2217-4.106-23.571-4.106-23.571-4.106s-14.64-4.7402-1.0287-16.424c14.35-12.323 43.049 0 43.049 0s9.227-6.1617 0-15.404c-9.2217-9.2372-16.397-21.561-23.571-20.535s4.0991 0-10.25 4.1113-14.35 10.268-16.402 15.399-2.0469 5.1312-11.274 7.1869c-9.2217 2.0557-12.297-14.374-7.1748-22.586 5.1279-8.2174 8.1983-18.485 22.548-22.591s11.279-8.2121 25.629-9.2373 13.252-14.136 23.344-12.075c17.816 3.641 18.924-4.1272 25.835-1.9394 12.266 3.8841 15.046-0.44918 23.244 7.7629s31.1 14.464 38.274 33.969c7.1748 19.51 11.274 23.616 11.274 23.616s13.326 8.2121 34.851 22.586 110.7 36.965 132.22 77.005 23.576 57.495 27.676 73.924c4.0989 16.424 13.326 19.505 11.274 26.692s-6.1513 5.1365-9.2268 25.672c-3.0759 20.53 0 31.828-7.1748 47.227s-33.822 40.04-33.822 40.04-42.025-83.162-72.776-88.298c-30.746-5.1312-44.072 6.1617-40.997-13.343 3.0759-19.51 12.298-30.803 15.373-39.015 3.0759-8.2174 9.2272-14.374 9.2272-14.374" fill="none" stroke="#000" stroke-miterlimit="11.5" stroke-width="1.25"/>
 <path d="m23.977 765.76s13.247-73.137 60.31-101.95c67.855-41.536 115.16-52.39 156.16-64.708s8.1983-20.535 8.1983-20.535 49.2-4.106 102.5-20.535c53.299-16.424 77.899-28.748 77.899-28.748l69.696 12.323 41.002-24.641 12.297-12.323s-24.6-20.535-4.0991-20.535 77.899-41.066 114.8 4.1113c36.897 45.172 57.398 102.67 45.096 139.63s-54.339 47.285-54.339 47.285l29.738 92.346s-659.26 2.3833-659.26-1.7227" fill="#c8c8c8" fill-rule="evenodd"/>
 <path d="m23.977 765.76s13.247-73.137 60.31-101.95c67.855-41.536 115.16-52.39 156.16-64.708s8.1983-20.535 8.1983-20.535 49.2-4.106 102.5-20.535c53.299-16.424 77.899-28.748 77.899-28.748l69.696 12.323 41.002-24.641 12.297-12.323s-24.6-20.535-4.0991-20.535 77.899-41.066 114.8 4.1113c36.897 45.172 57.398 102.67 45.096 139.63s-54.339 47.285-54.339 47.285l29.738 92.346s-659.26 2.3833-659.26-1.7227z" fill="none" stroke="#000" stroke-miterlimit="11.5" stroke-width="1.25"/>
 <path d="m215.84 606.8s61.498 8.7247 127.1-3.5934 63.544-21.048 88.144-37.477c24.6-16.424 25.629-32.854 25.629-32.854l-26.652-17.455s-19.472 20.535-84.051 43.121c-50.319 17.603-113.77 3.5934-113.77 3.5934s-12.297 40.558-16.397 44.664" fill="#ebebeb" fill-rule="evenodd"/>
 <path d="m215.84 606.8s61.498 8.7247 127.1-3.5934 63.544-21.048 88.144-37.477c24.6-16.424 25.629-32.854 25.629-32.854l-26.652-17.455s-19.472 20.535-84.051 43.121c-50.319 17.603-113.77 3.5934-113.77 3.5934s-12.297 40.558-16.397 44.664z" fill="none" stroke="#000" stroke-miterlimit="11.5" stroke-width="1.25"/>
 <path d="m554.09 503.11s43.049-24.641 69.701-13.349 52.27 34.909 64.573 70.844 15.373 79.056 15.373 79.056m-173.81-113.67s62.526-4.106 88.15 22.591c25.624 26.692 35.874 88.293 35.874 88.293s13.326-5.1312 13.326-28.748c0-23.611 12.298-59.545-11.274-78.03" fill="none" stroke="#000" stroke-miterlimit="14.3" stroke-width=".9375"/>
 <path d="m169.1 447.64s-13.194-9.4434-16.961 1.8866 0 7.5515 11.311 16.99 20.733 35.871 30.155 35.871 9.4222-7.5515 9.4222-7.5515" fill="#fff" fill-rule="evenodd"/>
 <path d="m169.1 447.64s-13.194-9.4433-16.961 1.8866 0 7.5515 11.311 16.99 20.733 35.871 30.155 35.871 9.4222-7.5515 9.4222-7.5515" fill="none" stroke="#000" stroke-miterlimit="11.5" stroke-width="1.25"/>
 <path d="m418.79 245.4s6.1883 3.9898 16.439 7.0706" fill="#fff" fill-rule="evenodd"/>
 <path d="m418.79 245.4s6.1883 3.9898 16.439 7.0706" fill="none" stroke="#000" stroke-miterlimit="11.5" stroke-width="1.25"/>
 <path d="m444.95 236.27s5.1384 0.67114 11.596 9.0787" fill="#fff" fill-rule="evenodd"/>
 <path d="m444.95 236.27s5.1384 0.67113 11.596 9.0787" fill="none" stroke="#000" stroke-miterlimit="11.5" stroke-width="1.25"/>
 <path d="m463.68 233.68s5.1331 0.67114 11.59 9.084" fill="#fff" fill-rule="evenodd"/>
 <path d="m463.68 233.68s5.1331 0.67113 11.59 9.084" fill="none" stroke="#000" stroke-miterlimit="11.5" stroke-width="1.25"/>
 <path d="m399.71 278.99s3.8723 9.0576 9.0424 12.936c5.1648 3.8841 5.1648 2.5894 10.973 2.5894s7.7498-1.2947 7.7498-1.2947-5.1648-7.7629-7.7498-10.997c-2.5798-3.2341-5.1648-9.0523-10.33-8.4076-5.1648 0.64999-10.335 5.8235-9.686 5.1735" fill="#fff" fill-rule="evenodd"/>
 <path d="m399.71 278.99s3.8723 9.0576 9.0424 12.936c5.1648 3.8841 5.1648 2.5894 10.973 2.5894s7.7498-1.2947 7.7498-1.2947-5.1648-7.7629-7.7498-10.997c-2.5798-3.2341-5.1648-9.0523-10.33-8.4076-5.1648 0.64999-10.335 5.8235-9.686 5.1735z" fill="none" stroke="#000" stroke-miterlimit="11.5" stroke-width="1.25"/>
 <path d="m400.06 324.75v-8.8673s-3.7932-2.5366-8.8524 1.2683" fill="#fff" fill-rule="evenodd"/>
 <path d="m400.06 324.75v-8.8673s-3.7932-2.5365-8.8524 1.2683" fill="none" stroke="#000" stroke-miterlimit="14.3" stroke-width=".9375"/>
</svg>
